Coordinates
version=1
nRows=38
nColumns=38
inDegrees=no

Units are S.I. units (second, meters, Newtons, ...)
If the header above contains a line with 'inDegrees', this indicates whether rotational values are in degrees (yes) or radians (no).

endheader
time	pelvis_tilt	pelvis_list	pelvis_rotation	pelvis_tx	pelvis_ty	pelvis_tz	hip_flexion_r	hip_adduction_r	hip_rotation_r	knee_angle_r	ankle_angle_r	subtalar_angle_r	mtp_angle_r	hip_flexion_l	hip_adduction_l	hip_rotation_l	knee_angle_l	ankle_angle_l	subtalar_angle_l	mtp_angle_l	lumbar_extension	lumbar_bending	lumbar_rotation	arm_flex_r	arm_add_r	arm_rot_r	elbow_flex_r	pro_sup_r	wrist_flex_r	wrist_dev_r	arm_flex_l	arm_add_l	arm_rot_l	elbow_flex_l	pro_sup_l	wrist_flex_l	wrist_dev_l
2.43	1.79937	1.45519	-0.132787	0.585547	1.57768	0.937158	0.208944	0.0986801	-0.262876	0.41927	-0.25087	0	0	0.0661428	-0.230969	-0.0319533	1.29495	-0.307558	0	0	-0.0623337	0.15951	-0.129038	-0.114482	-0.31573	0.233536	0.846801	1.56315	0	0	-0.179152	-0.253893	0.22545	0.788867	1.5708	0	0
2.44	1.85129	1.45599	-0.185723	0.586867	1.58638	0.93868	0.185718	0.101433	-0.260324	0.405717	-0.247671	0	0	0.0882582	-0.228403	-0.0245497	1.33261	-0.285999	0	0	-0.0689304	0.156263	-0.122322	-0.106083	-0.312983	0.229779	0.845397	1.5708	0	0	-0.182734	-0.256622	0.226412	0.789205	1.5708	0	0
2.45	1.89731	1.45705	-0.233064	0.588279	1.5951	0.940139	0.162926	0.104057	-0.257128	0.39079	-0.24563	0	0	0.11018	-0.225248	-0.0177536	1.36511	-0.26304	0	0	-0.0739285	0.152213	-0.116963	-0.0950696	-0.312312	0.234255	0.842263	1.5708	0	0	-0.187906	-0.259432	0.225133	0.79058	1.5708	0	0
2.46	1.93904	1.45888	-0.277228	0.589737	1.60371	0.941519	0.141791	0.105728	-0.253831	0.377445	-0.243878	0	0	0.132321	-0.220758	-0.0123871	1.39275	-0.243156	0	0	-0.0780261	0.147151	-0.112827	-0.0814173	-0.312269	0.243223	0.837392	1.5708	0	0	-0.19482	-0.261943	0.220736	0.793215	1.5708	0	0
2.47	1.97877	1.46171	-0.320286	0.591194	1.61221	0.942817	0.122453	0.105853	-0.250736	0.365885	-0.24218	0	0	0.154979	-0.214605	-0.00857931	1.415	-0.22889	0	0	-0.0814326	0.140892	-0.109811	-0.065614	-0.312301	0.254995	0.831101	1.5708	0	0	-0.203176	-0.264017	0.213459	0.796982	1.5708	0	0
2.48	2.0203	1.46537	-0.364669	0.592612	1.62066	0.944055	0.103212	0.104835	-0.248009	0.352657	-0.241729	0	0	0.177673	-0.206969	-0.0046181	1.43145	-0.217304	0	0	-0.0827606	0.131901	-0.133519	-0.0191773	-0.314168	0.320096	0.802021	1.5708	0	0	-0.235118	-0.256413	0.160467	0.811836	1.5708	0	0
2.49	2.04882	1.47053	-0.396709	0.593987	1.62907	0.945072	0.088171	0.101877	-0.247084	0.343941	-0.239317	0	0	0.201346	-0.198093	-0.00166205	1.44209	-0.208782	0	0	-0.0829435	0.123371	-0.133584	4.60585e-05	-0.312411	0.336127	0.792039	1.5708	0	0	-0.245692	-0.256789	0.148032	0.816329	1.5708	0	0
2.5	2.08878	1.47574	-0.441528	0.595446	1.6374	0.946093	0.0731617	0.0982126	-0.245427	0.336727	-0.236974	0	0	0.222861	-0.189175	-0.00141674	1.44663	-0.201507	0	0	-0.0844793	0.114349	-0.131408	0.017998	-0.310293	0.349151	0.78404	1.5708	0	0	-0.254811	-0.257146	0.136544	0.820579	1.5708	0	0
2.51	2.14324	1.48006	-0.500777	0.596879	1.6456	0.947109	0.0570429	0.0946198	-0.243333	0.329405	-0.234763	0	0	0.242405	-0.180726	-0.002291	1.44582	-0.19484	0	0	-0.0875905	0.105695	-0.129356	0.0358715	-0.308081	0.361445	0.77741	1.5708	0	0	-0.263058	-0.257433	0.125342	0.825009	1.5708	0	0
2.52	2.20541	1.48393	-0.567386	0.598192	1.65377	0.94804	0.0405167	0.090833	-0.241291	0.321958	-0.232489	0	0	0.26072	-0.17256	-0.00482953	1.44	-0.188688	0	0	-0.0909112	0.097381	-0.127308	0.0534067	-0.307535	0.376519	0.773064	1.56874	0	0	-0.270026	-0.257748	0.115832	0.828809	1.5708	0	0
2.53	2.24339	1.48932	-0.609901	0.599381	1.66201	0.94862	0.0289643	0.0860163	-0.241528	0.31959	-0.227962	0	0	0.281057	-0.164228	-0.00825104	1.42973	-0.1838	0	0	-0.0927565	0.0902032	-0.0965028	0.0329258	-0.303296	0.315331	0.796601	1.5708	0	0	-0.252161	-0.269823	0.153949	0.821834	1.5708	0	0
2.54	2.35615	1.48877	-0.726318	0.600488	1.67012	0.949656	0.00364158	0.0840501	-0.237002	0.30304	-0.227629	0	0	0.291104	-0.157515	-0.0134137	1.41382	-0.17614	0	0	-0.0984274	0.0817693	-0.122244	0.0884263	-0.312121	0.417785	0.770265	1.51696	0	0	-0.280865	-0.259422	0.103056	0.834936	1.5708	0	0
2.55	2.4417	1.48886	-0.815673	0.601509	1.67825	0.950425	-0.0178578	0.0818047	-0.232044	0.288832	-0.22749	0	0	0.302819	-0.150878	-0.0187272	1.39343	-0.170885	0	0	-0.107717	0.0747983	-0.109722	0.0815841	-0.295681	0.35477	0.779968	1.5708	0	0	-0.278599	-0.26293	0.106267	0.838905	1.5708	0	0
2.56	2.50949	1.48973	-0.886839	0.602374	1.68637	0.950844	-0.0353948	0.0788994	-0.229375	0.279458	-0.225513	0	0	0.315732	-0.143881	-0.023925	1.369	-0.16621	0	0	-0.11207	0.0685854	-0.103201	0.0879106	-0.292746	0.344425	0.786512	1.5708	0	0	-0.279108	-0.264882	0.106381	0.841098	1.5708	0	0
2.57	2.58478	1.48841	-0.964586	0.603082	1.69444	0.951274	-0.0565901	0.0771316	-0.225234	0.265323	-0.224367	0	0	0.325108	-0.137064	-0.0290164	1.33937	-0.160986	0	0	-0.119044	0.0631902	-0.0975005	0.0933711	-0.289296	0.331214	0.795126	1.5708	0	0	-0.279114	-0.266346	0.105658	0.844352	1.5708	0	0
2.58	2.65431	1.48593	-1.03641	0.603807	1.70248	0.951622	-0.0780023	0.0758906	-0.221636	0.251731	-0.223976	0	0	0.33186	-0.130704	-0.0341866	1.30453	-0.156351	0	0	-0.126724	0.058278	-0.0920437	0.0987134	-0.285742	0.318508	0.804472	1.5708	0	0	-0.278819	-0.268136	0.104997	0.847708	1.5708	0	0
2.59	2.71689	1.48238	-1.10162	0.604587	1.71042	0.95187	-0.0985787	0.074781	-0.218583	0.241207	-0.223132	0	0	0.335831	-0.124795	-0.0393755	1.26397	-0.153337	0	0	-0.135314	0.053908	-0.0861859	0.103794	-0.282246	0.305905	0.814955	1.5708	0	0	-0.277855	-0.269783	0.104364	0.851102	1.5708	0	0
2.6	2.76794	1.47835	-1.15531	0.605226	1.71833	0.951987	-0.118345	0.0738793	-0.216135	0.232357	-0.221831	0	0	0.33759	-0.118624	-0.0428585	1.21766	-0.152231	0	0	-0.144144	0.0504012	-0.080071	0.108142	-0.279535	0.293725	0.826948	1.5708	0	0	-0.276258	-0.270645	0.103313	0.854413	1.5708	0	0
2.61	2.80481	1.47468	-1.19435	0.605701	1.72625	0.951907	-0.137129	0.0735344	-0.213526	0.223499	-0.219984	0	0	0.338336	-0.112302	-0.0444403	1.1663	-0.153054	0	0	-0.152104	0.0478306	-0.0741355	0.111737	-0.27762	0.282388	0.840028	1.5708	0	0	-0.27401	-0.270747	0.102131	0.857026	1.5708	0	0
2.62	2.83344	1.42285	-1.24581	0.607743	1.73719	0.953204	-0.220333	0.0903944	-0.196517	0.186901	-0.229894	0	0	0.300213	-0.273551	-0.353972	1.17664	-0.246246	0	0	-0.207167	0.0618415	-0.0500137	0.107538	-0.291138	0.278676	0.887006	1.5708	0	0	-0.287818	-0.269176	0.0903132	0.888464	1.5708	0	0
2.63	2.84693	1.46824	-1.23827	0.606361	1.74197	0.951206	-0.173081	0.0751256	-0.206223	0.204152	-0.219768	0	0	0.336313	-0.100308	-0.0460042	1.04873	-0.161932	0	0	-0.167722	0.0453299	-0.0613426	0.113754	-0.275295	0.255286	0.872933	1.5708	0	0	-0.266279	-0.269699	0.100449	0.861324	1.5708	0	0
2.64	2.83966	1.4713	-1.23087	0.606491	1.74995	0.95016	-0.180961	0.0756578	-0.205877	0.201982	-0.213789	0	0	0.339955	-0.0935103	-0.0455275	0.984517	-0.164255	0	0	-0.165634	0.0448467	-0.0586718	0.117818	-0.274473	0.251705	0.882109	1.5708	0	0	-0.264166	-0.267691	0.0983587	0.860399	1.5708	0	0
2.65	2.83705	1.47225	-1.22723	0.60652	1.75789	0.94918	-0.193647	0.0772841	-0.202409	0.193226	-0.208808	0	0	0.338598	-0.0873644	-0.0473519	0.915438	-0.171143	0	0	-0.166637	0.0446728	-0.0608495	0.128022	-0.278508	0.267133	0.890025	1.5568	0	0	-0.265532	-0.262684	0.0861047	0.861991	1.5708	0	0
2.66	2.82045	1.47659	-1.20863	0.606459	1.76598	0.947814	-0.200982	0.0786576	-0.201518	0.188305	-0.204882	0	0	0.339573	-0.0818224	-0.0514225	0.844351	-0.175816	0	0	-0.163766	0.0445264	-0.0581877	0.127288	-0.27452	0.252623	0.901152	1.5708	0	0	-0.262354	-0.260747	0.0840578	0.861277	1.5708	0	0
2.67	2.80334	1.48064	-1.18892	0.606261	1.77419	0.946358	-0.209094	0.0801307	-0.201119	0.182536	-0.200706	0	0	0.338672	-0.0764353	-0.0566575	0.77121	-0.180929	0	0	-0.160829	0.0444883	-0.056472	0.127678	-0.273493	0.246	0.912122	1.5708	0	0	-0.259587	-0.258647	0.0817228	0.860931	1.5708	0	0
2.68	2.78051	1.4843	-1.16301	0.60598	1.78251	0.944793	-0.218068	0.082428	-0.200156	0.175376	-0.196579	0	0	0.336686	-0.0717736	-0.0623016	0.696805	-0.186514	0	0	-0.157826	0.0451455	-0.055829	0.12878	-0.273928	0.243884	0.922425	1.5708	0	0	-0.257269	-0.25619	0.0789016	0.860713	1.5708	0	0
2.69	2.74493	1.48797	-1.12416	0.605646	1.7909	0.943081	-0.226142	0.0854986	-0.199595	0.169605	-0.192431	0	0	0.334417	-0.0682219	-0.0673583	0.621522	-0.193326	0	0	-0.154172	0.0467265	-0.056113	0.130364	-0.274724	0.243961	0.931525	1.5708	0	0	-0.255533	-0.253149	0.0751487	0.860613	1.5708	0	0
2.7	2.69654	1.49133	-1.07179	0.605213	1.79939	0.941238	-0.233595	0.0893413	-0.200295	0.165397	-0.187853	0	0	0.331426	-0.0653324	-0.070093	0.545533	-0.203323	0	0	-0.150207	0.0490708	-0.0573932	0.132011	-0.275721	0.245237	0.939646	1.5708	0	0	-0.254486	-0.250059	0.0707905	0.861159	1.5708	0	0
2.71	2.6405	1.49398	-1.01102	0.604609	1.80802	0.939291	-0.241312	0.093713	-0.20215	0.161899	-0.183428	0	0	0.327368	-0.0625025	-0.0713653	0.471103	-0.214044	0	0	-0.146264	0.052041	-0.0598786	0.133541	-0.276738	0.24715	0.946818	1.5708	0	0	-0.254144	-0.247037	0.0665893	0.862365	1.5708	0	0
2.72	2.58673	1.49562	-0.952331	0.603866	1.81674	0.937322	-0.249336	0.0978691	-0.205398	0.160146	-0.178689	0	0	0.321841	-0.0591945	-0.0719134	0.401041	-0.223427	0	0	-0.143178	0.0550924	-0.0627865	0.134779	-0.277726	0.249113	0.953306	1.5708	0	0	-0.254161	-0.244363	0.0630226	0.86411	1.5708	0	0
2.73	2.53997	1.49682	-0.901075	0.602976	1.82554	0.935376	-0.256239	0.100709	-0.210832	0.162572	-0.173102	0	0	0.315537	-0.0548186	-0.0722041	0.337942	-0.228963	0	0	-0.140778	0.0579929	-0.0655506	0.135804	-0.278952	0.251273	0.959088	1.5708	0	0	-0.254054	-0.241178	0.059745	0.865886	1.5708	0	0
2.74	2.49862	1.49818	-0.855886	0.601965	1.8344	0.93346	-0.260939	0.101942	-0.218479	0.169966	-0.16577	0	0	0.309299	-0.0493303	-0.0734834	0.282246	-0.231504	0	0	-0.138519	0.0604161	-0.0679418	0.136801	-0.280182	0.253538	0.963502	1.5708	0	0	-0.25357	-0.237503	0.0567669	0.867071	1.5708	0	0
2.75	2.45518	1.50018	-0.809371	0.600921	1.84327	0.931574	-0.26226	0.101635	-0.227842	0.183495	-0.156845	0	0	0.30409	-0.0434869	-0.0755803	0.233694	-0.234202	0	0	-0.1358	0.0621332	-0.0695482	0.137773	-0.281116	0.255693	0.965969	1.5708	0	0	-0.25251	-0.234023	0.0547885	0.867317	1.5708	0	0
2.76	2.4179	1.50224	-0.77037	0.600027	1.85221	0.929831	-0.261756	0.0998202	-0.238099	0.202129	-0.146844	0	0	0.298255	-0.0375471	-0.0757078	0.192123	-0.238576	0	0	-0.133539	0.0627262	-0.0696117	0.138253	-0.281341	0.257227	0.966671	1.5708	0	0	-0.250977	-0.231324	0.0540912	0.866906	1.5708	0	0
2.77	2.40109	1.50381	-0.75313	0.599267	1.86125	0.9283	-0.260102	0.0958213	-0.251825	0.228107	-0.131189	0	0	0.291147	-0.0316547	-0.0754341	0.160178	-0.246939	0	0	-0.131581	0.0622232	-0.076888	0.15269	-0.289547	0.295424	0.95818	1.53852	0	0	-0.25543	-0.226298	0.0430886	0.86827	1.5708	0	0
2.78	2.3764	1.50625	-0.729163	0.598657	1.87043	0.926872	-0.256631	0.0906341	-0.264112	0.256454	-0.116426	0	0	0.288192	-0.026706	-0.077692	0.146331	-0.252434	0	0	-0.131377	0.061134	-0.0643843	0.136132	-0.280617	0.256777	0.96547	1.5708	0	0	-0.245477	-0.228029	0.0578467	0.864193	1.5708	0	0
2.79	2.39217	1.50495	-0.745861	0.59816	1.8797	0.925965	-0.263939	0.0885903	-0.263925	0.267347	-0.121975	0	0	0.283045	-0.0239482	-0.0805119	0.148533	-0.254977	0	0	-0.134428	0.0606895	-0.068116	0.143825	-0.27995	0.272016	0.955902	1.5708	0	0	-0.248001	-0.224061	0.0489654	0.865338	1.5708	0	0
2.8	2.40324	1.50528	-0.758448	0.597607	1.88912	0.925046	-0.264491	0.0829399	-0.271219	0.293345	-0.115988	0	0	0.280952	-0.0204825	-0.0812754	0.163336	-0.256861	0	0	-0.136546	0.0590158	-0.0629785	0.139662	-0.277784	0.266264	0.953758	1.5708	0	0	-0.244327	-0.223675	0.0529554	0.863327	1.5708	0	0
